<svg width="54" height="54" viewBox="0 0 54 54" fill="none" xmlns="http://www.w3.org/2000/svg">
<path d="M25.0124 14.5017C25.4287 12.307 28.5713 12.307 28.9876 14.5017C29.4606 16.9949 32.3348 18.1855 34.4322 16.7569C36.2784 15.4994 38.5006 17.7216 37.2431 19.5678C35.8145 21.6652 37.0051 24.5394 39.4983 25.0124C41.693 25.4287 41.693 28.5713 39.4983 28.9876C37.0051 29.4606 35.8146 32.3348 37.2431 34.4322C38.5006 36.2784 36.2784 38.5006 34.4322 37.2431C32.3348 35.8145 29.4606 37.0051 28.9876 39.4983C28.5713 41.693 25.4287 41.693 25.0124 39.4983C24.5394 37.0051 21.6652 35.8146 19.5678 37.2431C17.7216 38.5006 15.4994 36.2784 16.7569 34.4322C18.1855 32.3348 16.9949 29.4606 14.5017 28.9876C12.307 28.5713 12.307 25.4287 14.5017 25.0124C16.9949 24.5394 18.1855 21.6652 16.7569 19.5678C15.4994 17.7216 17.7216 15.4994 19.5678 16.7569C21.6652 18.1855 24.5394 16.9949 25.0124 14.5017Z" stroke="#D7D8D9" stroke-width="1.5"/>
<circle cx="27" cy="27" r="4" stroke="#D7D8D9" stroke-width="2"/>
</svg>
