<svg width="29" height="29" viewBox="0 0 29 29" fill="none" xmlns="http://www.w3.org/2000/svg">
<path d="M28 7.5C28 9.00602 26.7992 10.6191 24.2936 11.9151C21.8387 13.1849 18.3777 14 14.5 14C10.6223 14 7.16133 13.1849 4.70637 11.9151C2.20084 10.6191 1 9.00602 1 7.5C1 5.99398 2.20084 4.38089 4.70637 3.08492C7.16133 1.81511 10.6223 1 14.5 1C18.3777 1 21.8387 1.81511 24.2936 3.08492C26.7992 4.38089 28 5.99398 28 7.5Z" stroke="white" stroke-opacity="0.8" stroke-width="2"/>
<path d="M28 14.5C28 16.006 26.7992 17.6191 24.2936 18.9151C21.8387 20.1849 18.3777 21 14.5 21C10.6223 21 7.16133 20.1849 4.70637 18.9151C2.20084 17.6191 1 16.006 1 14.5C1 12.994 2.20084 11.3809 4.70637 10.0849C7.16133 8.81511 10.6223 8 14.5 8C18.3777 8 21.8387 8.81511 24.2936 10.0849C26.7992 11.3809 28 12.994 28 14.5Z" stroke="white" stroke-opacity="0.8" stroke-width="2"/>
<path d="M28 21.5C28 23.006 26.7992 24.6191 24.2936 25.9151C21.8387 27.1849 18.3777 28 14.5 28C10.6223 28 7.16133 27.1849 4.70637 25.9151C2.20084 24.6191 1 23.006 1 21.5C1 19.994 2.20084 18.3809 4.70637 17.0849C7.16133 15.8151 10.6223 15 14.5 15C18.3777 15 21.8387 15.8151 24.2936 17.0849C26.7992 18.3809 28 19.994 28 21.5Z" stroke="white" stroke-opacity="0.8" stroke-width="2"/>
</svg>
