<svg width="23" height="30" viewBox="0 0 23 30" fill="none" xmlns="http://www.w3.org/2000/svg">
<path d="M22 11.6C22 12.9475 21.3796 14.7181 20.3204 16.7078C19.2768 18.6682 17.8737 20.7211 16.4526 22.599C15.0343 24.4732 13.6136 26.1529 12.5463 27.3651C12.1387 27.8281 11.7832 28.2222 11.5 28.5319C11.2168 28.2222 10.8613 27.8281 10.4537 27.3651C9.38637 26.1529 7.96571 24.4732 6.54741 22.599C5.12633 20.7211 3.72316 18.6682 2.6796 16.7078C1.62038 14.7181 1 12.9475 1 11.6C1 5.7376 5.70916 1 11.5 1C17.2908 1 22 5.7376 22 11.6Z" stroke="white" stroke-opacity="0.8" stroke-width="2"/>
</svg>
