<svg width="30" height="30" viewBox="0 0 30 30" fill="none" xmlns="http://www.w3.org/2000/svg">
<path fill-rule="evenodd" clip-rule="evenodd" d="M13.7973 2.65699C13.2252 5.691 9.74892 7.13975 7.21209 5.40136C6.05352 4.60744 4.65909 6.0104 5.44818 7.17606C7.176 9.72841 5.73606 13.226 2.7205 13.8016C1.34329 14.0644 1.34329 16.0485 2.7205 16.3114C5.73606 16.8869 7.176 20.3845 5.44818 22.9369C4.65909 24.1025 6.05352 25.5055 7.21209 24.7116C9.74891 22.9732 13.2252 24.4219 13.7973 27.4559C14.0586 28.8416 16.0306 28.8416 16.2918 27.4559C16.8639 24.4219 20.3402 22.9732 22.8771 24.7116C24.0356 25.5055 25.4301 24.1025 24.641 22.9369C22.9131 20.3845 24.3531 16.8869 27.3686 16.3114C28.7459 16.0485 28.7458 14.0644 27.3686 13.8016C24.3531 13.226 22.9131 9.7284 24.641 7.17606C25.4301 6.0104 24.0356 4.60744 22.8771 5.40136C20.3402 7.13975 16.8639 5.691 16.2918 2.65699C16.0306 1.27136 14.0586 1.27136 13.7973 2.65699ZM17.7614 2.3765C17.1924 -0.641775 12.8968 -0.641775 12.3277 2.3765C11.9564 4.34546 9.70044 5.28565 8.05413 4.15749C5.53046 2.42812 2.49302 5.48414 4.21188 8.02325C5.33317 9.67963 4.3987 11.9494 2.44171 12.323C-0.558207 12.8955 -0.558207 17.2174 2.44171 17.79C4.3987 18.1635 5.33317 20.4333 4.21188 22.0897C2.49302 24.6288 5.53046 27.6848 8.05413 25.9554C9.70044 24.8273 11.9564 25.7675 12.3277 27.7364C12.8968 30.7547 17.1924 30.7547 17.7614 27.7364C18.1327 25.7675 20.3887 24.8273 22.035 25.9554C24.5587 27.6848 27.5961 24.6288 25.8773 22.0897C24.756 20.4333 25.6904 18.1635 27.6474 17.79C30.6473 17.2174 30.6473 12.8955 27.6474 12.323C25.6904 11.9494 24.756 9.67963 25.8773 8.02325C27.5961 5.48414 24.5587 2.42812 22.035 4.15749C20.3887 5.28565 18.1327 4.34546 17.7614 2.3765Z" fill="#F6F6F7"/>
<path fill-rule="evenodd" clip-rule="evenodd" d="M15.15 18.0666C16.8022 18.0666 18.1416 16.719 18.1416 15.0566C18.1416 13.3943 16.8022 12.0467 15.15 12.0467C13.4978 12.0467 12.1584 13.3943 12.1584 15.0566C12.1584 16.719 13.4978 18.0666 15.15 18.0666ZM15.15 20.0732C17.9037 20.0732 20.1361 17.8272 20.1361 15.0566C20.1361 12.286 17.9037 10.04 15.15 10.04C12.3963 10.04 10.1639 12.286 10.1639 15.0566C10.1639 17.8272 12.3963 20.0732 15.15 20.0732Z" fill="#F6F6F7"/>
</svg>
